<svg width="2174" height="353" viewBox="0 0 2174 353" fill="none" xmlns="http://www.w3.org/2000/svg">
<g clip-path="url(#clip0_482_60)">
<path d="M1426.7 119.537H1325.26V351.202H1390.57V285.153H1423.22C1482.1 285.153 1524.99 256.317 1524.99 201.692C1525.1 149.679 1486.57 119.537 1426.7 119.537ZM1422.02 234.88H1390.89V173.618H1421.7C1445.31 173.618 1459.57 184.5 1459.57 204.086C1459.57 223.672 1445.31 234.88 1422.02 234.88ZM506.333 293.749H379.097V256.97H492.728V206.263H379.097V171.224H504.592V116.817H314.227V348.591H506.333V293.749ZM136.923 218.667H126.584L90.992 117.035H0V348.591H67.0467V224.543H74.3391L114.828 338.471H148.243L188.732 224.543H195.916V348.591H262.962V117.035H172.406L136.923 218.667ZM1618.15 119.537L1517.37 351.202H1586.38L1603.24 310.071H1694.56L1711.76 351.202H1782.18L1681.39 119.537H1618.15ZM1622.51 260.996L1646.02 203.324H1652.44L1675.62 260.996H1622.51ZM687.229 259.908H713.025L739.146 260.561C736.734 265.937 733.38 270.838 729.242 275.033C723.017 281.67 715.642 287.126 707.473 291.137C697.234 295.787 686.062 298.021 674.82 297.666C658.447 298.285 642.495 292.392 630.459 281.275C618.423 270.16 611.284 254.73 610.604 238.362C610.496 236.732 610.496 235.097 610.604 233.466C610.254 225.385 611.498 217.314 614.267 209.715C617.037 202.115 621.277 195.135 626.745 189.172C632.213 183.211 638.802 178.384 646.135 174.969C653.469 171.553 661.405 169.615 669.487 169.265H671.12C692.215 169.141 712.596 176.903 728.262 191.028L767.119 145.544C740.497 122.639 706.222 110.596 671.12 111.812C597.761 111.812 543.557 164.913 543.557 232.486C543.557 303.325 598.74 353.052 672.427 353.052C709.799 353.24 746.106 340.604 775.282 317.252V212.9H687.229V259.908ZM905.566 116.6L804.778 348.373H873.784L890.655 307.677H981.973L999.279 348.809H1069.59L968.695 116.6H905.566ZM909.92 258.058L933.103 201.257H940.178L963.035 258.058H909.92ZM2025.88 198.863C2026.32 188.836 2024.68 178.827 2021.06 169.464C2017.45 160.101 2011.94 151.587 2004.87 144.456C1988.99 128.787 1963.95 119.429 1927.81 119.429H1815.81V351.202H1881.12V281.236H1909.85L1957.85 351.202H2034.04L1977.55 270.354C1992.14 265.102 2004.7 255.345 2013.38 242.493C2022.08 229.643 2026.45 214.363 2025.88 198.863ZM1924.76 230.311H1881.23V175.25H1924.21C1945.99 175.25 1959.71 184.5 1959.71 202.672C1959.71 220.844 1947.08 230.854 1924.76 230.854V230.311Z" fill="white"/>
<path d="M1010.85 115.809C1027.68 151.365 1044.58 186.895 1061.55 222.398C1066.08 170.563 1062.14 118.396 1058.22 66.5209C1058.23 64.3249 1057.65 62.1651 1056.54 60.2664C1055.03 58.4768 1053.04 57.1579 1050.8 56.4722C1034.21 50.0605 1016.9 45.6683 999.249 43.392C994.74 42.5822 990.122 42.5865 985.617 43.4048C981.541 44.5997 977.677 46.4128 974.159 48.78C957.107 58.9186 940.169 69.2262 923.346 79.7007C915.055 84.863 906.723 90.1185 899.998 97.1496C895.244 102.418 891.004 108.123 887.336 114.189C875.48 132.585 864.294 151.398 853.78 170.627L1005.39 206.541L1023.46 199.293L1030.02 138.983" fill="#E6352B"/>
<path d="M1028.6 153.541L1023.45 199.301L1005.39 206.55L853.783 170.64L880.524 168.247C889.441 169.965 898.453 171.143 907.512 171.776C925.715 172.724 964.035 168.776 972.73 167.881C983.868 166.799 995.105 167.235 1006.13 169.178L1016.13 140.98L999.649 93.4872C1005.08 104.818 1021.57 138.491 1026.95 149.801L1030.04 156.321" fill="#CE180F"/>
<path d="M843.583 176.659C842.391 186.166 845.797 192.78 849.983 203.504C850.466 200.983 851.632 198.641 853.357 196.734C855.807 204.625 860.359 211.714 866.53 217.25L870.503 212.563C892.521 239.424 933.902 248.391 965.103 233.031C964.52 235.535 963.952 238.055 963.368 240.558C967.778 235.898 974.747 234.642 981.186 234.648C987.626 234.654 994.13 235.687 1000.49 234.486C1012.11 232.367 1021.16 223.051 1027.26 213.013L1015.71 214.393C1016.36 211.74 1017.78 209.335 1019.79 207.474C1021.8 205.612 1024.31 204.377 1027.02 203.918C1026.23 193.133 1016.86 184.486 1006.53 181.027C996.201 177.567 984.994 178.3 974.111 179.065L947.732 180.909C951.326 179.811 954.332 177.339 956.09 174.037C942.351 175.676 928.498 177.304 914.704 176.119C900.911 174.934 887.021 170.693 876.446 161.8C877.168 161.075 878.03 160.502 878.98 160.118C879.931 159.733 880.951 159.545 881.977 159.563C872.51 152.559 854.614 153.844 847.801 164.673C845.488 168.293 844.044 172.393 843.583 176.659Z" fill="#D1F1FF"/>
<path d="M1012.05 198.601C999.558 188.939 979.163 195.185 967.498 184.582C972.648 186.098 978.186 185.532 982.911 183.008C971.806 181.498 958.77 177.698 947.732 180.909C951.326 179.811 954.332 177.339 956.09 174.037C942.351 175.676 928.498 177.303 914.704 176.119C900.911 174.934 887.021 170.693 876.446 161.8C877.168 161.075 878.03 160.502 878.98 160.118C879.931 159.733 880.951 159.545 881.977 159.563C872.51 152.559 854.614 153.844 847.801 164.673C845.488 168.293 844.044 172.393 843.583 176.659C842.391 186.166 845.797 192.78 849.983 203.503C850.466 200.983 851.632 198.641 853.357 196.734C855.63 204.129 860.148 212.406 866.521 217.006C866.866 216.635 867.193 216.277 867.501 215.967L868.293 215.184C871.88 211.805 872.171 214.878 876.949 218.595C879.756 222.308 883.775 224.937 888.316 226.027C892.243 228.186 896.513 229.661 900.94 230.388C922.484 233.373 940.031 228.926 959.85 220.018C957.332 222.124 956.048 223.604 954.165 225.383C953.366 225.981 952.62 226.646 951.936 227.37C960.492 224.858 967.027 222.185 972.891 220.725C975.124 220.216 977.396 219.893 979.685 219.761C982.432 219.665 985.17 219.394 987.882 218.948C988.643 218.827 989.441 218.678 990.291 218.484C996.812 216.959 1003.3 212.952 1005.33 206.587L996.574 206.211C998.441 203.902 1000.79 202.025 1003.46 200.711C1006.14 199.396 1009.06 198.677 1012.05 198.601Z" fill="white"/>
<path d="M1037.49 226.95C1037.19 222.901 1037.91 218.844 1039.59 215.145C1041.25 211.788 1048.5 205.375 1052.17 204.4L1054.34 203.475C1058.66 202.366 1063.19 202.303 1067.54 203.291C1069.87 203.793 1072.06 204.773 1073.99 206.167C1074.44 205.085 1074.56 203.895 1074.32 202.747C1076.45 204.421 1078.23 206.486 1079.58 208.829C1080.5 210.512 1080.97 212.397 1080.97 214.311C1083.22 211.287 1082.82 209.628 1082.68 205.305C1086.84 210.093 1089.23 216.141 1089.45 222.452C1089.69 228.764 1087.75 234.962 1083.96 240.025L1088.09 238.918C1086.64 245.259 1080.66 249.963 1074.45 251.925C1068.24 253.886 1066.32 254.089 1058.58 252.661C1050.32 250.033 1048.1 247.905 1044.7 242.668C1041.31 237.43 1039.09 230.361 1041.28 224.512L1037.49 226.95Z" fill="white"/>
<path d="M1041.19 238.877C1039.6 234.186 1039.67 229.097 1041.4 224.46C1041.61 226.285 1041.95 228.092 1042.41 229.872C1044.12 233.578 1047.1 236.556 1050.82 238.267C1049.41 238.87 1047.86 239.051 1046.35 238.793C1047.32 240.632 1048.57 242.311 1050.06 243.769C1051.41 245.075 1053.06 246.026 1054.87 246.534C1063.17 249.248 1074.64 245.413 1077.27 240.691C1075.5 239.872 1074.06 238.504 1073.15 236.794C1075.03 236.593 1076.84 235.949 1078.41 234.918C1079.99 233.887 1081.29 232.497 1082.22 230.864C1084.02 228.009 1085.2 224.812 1085.68 221.475C1086.29 217.839 1086.76 214.319 1083.1 205.636C1087.11 210.43 1089.39 216.424 1089.56 222.654C1089.74 228.885 1087.8 234.99 1084.07 239.987L1088.21 238.88C1086.75 245.221 1081.39 249.971 1075.28 252.217C1069.96 254.549 1063.99 255.012 1058.35 253.531C1056.57 252.928 1054.84 252.218 1053.14 251.407C1053.64 252.461 1054.17 253.5 1054.67 254.536C1048.4 251.137 1043.6 245.563 1041.19 238.877Z" fill="#D1F1FF"/>
<path fill-rule="evenodd" clip-rule="evenodd" d="M1198.09 98.8473L1204.14 99.988C1204.6 97.9705 1203.5 96.1991 1201.97 95.8311C1200.42 95.46 1198.63 96.5653 1198.14 98.6033C1198.12 98.6851 1198.1 98.7664 1198.09 98.8473ZM1197.1 98.662L1196.33 98.5157C1193.51 97.9842 1190.79 99.8387 1190.26 102.658C1189.73 105.477 1191.58 108.193 1194.4 108.725L1204.63 110.654C1207.45 111.185 1210.17 109.33 1210.7 106.511C1211.23 103.692 1209.38 100.976 1206.56 100.444L1205.12 100.173C1205.65 97.7429 1204.36 95.3765 1202.2 94.8586C1200.01 94.3338 1197.76 95.9061 1197.17 98.3703C1197.14 98.4677 1197.12 98.565 1197.1 98.662Z" fill="white"/>
<g filter="url(#filter0_i_482_60)">
<path d="M1241.42 167.455C1239.17 177.485 1233.99 186.622 1226.55 193.713C1219.1 200.8 1209.72 205.525 1199.59 207.285C1189.47 209.048 1179.05 207.77 1169.64 203.609C1160.24 199.45 1152.28 192.596 1146.78 183.918C1141.27 175.237 1138.46 165.121 1138.7 154.844C1138.94 144.566 1142.22 134.59 1148.12 126.177C1154.03 117.763 1162.3 111.289 1171.88 107.571C1181.47 103.854 1191.94 103.06 1201.98 105.293L1202.8 105.489C1209.38 106.994 1215.59 109.776 1221.09 113.683C1226.59 117.59 1231.26 122.54 1234.86 128.256C1238.44 133.968 1240.86 140.332 1241.99 146.985C1243.12 153.635 1242.92 160.442 1241.42 167.019" fill="#1B9DD9"/>
</g>
<path fill-rule="evenodd" clip-rule="evenodd" d="M1197.09 238.801L1203.41 239.778C1203.81 237.676 1202.63 235.875 1201.01 235.545C1199.39 235.212 1197.57 236.423 1197.14 238.547C1197.12 238.633 1197.1 238.717 1197.09 238.801ZM1196.1 238.649L1195.3 238.524C1192.38 238.073 1189.65 240.072 1189.2 242.989C1188.75 245.906 1190.75 248.636 1193.67 249.087L1204.25 250.724C1207.17 251.175 1209.9 249.176 1210.35 246.259C1210.8 243.342 1208.8 240.612 1205.89 240.161L1204.4 239.931C1204.86 237.414 1203.46 235.024 1201.22 234.565C1198.95 234.099 1196.68 235.793 1196.16 238.347C1196.14 238.447 1196.12 238.548 1196.1 238.649Z" fill="white"/>
<g filter="url(#filter1_i_482_60)">
<path d="M1244.94 297.127C1245.09 307.702 1242.11 318.085 1236.36 326.963C1230.6 335.84 1222.35 342.815 1212.64 347.004C1202.94 351.195 1192.2 352.414 1181.79 350.505C1171.39 348.597 1161.78 343.648 1154.2 336.284C1146.6 328.92 1141.37 319.471 1139.14 309.132C1136.92 298.791 1137.81 288.024 1141.7 278.19C1145.6 268.355 1152.32 259.896 1161.01 253.879C1169.71 247.863 1180 244.559 1190.58 244.386H1191.44C1198.39 244.314 1205.27 245.61 1211.71 248.2C1218.15 250.791 1224.01 254.623 1228.98 259.48C1233.93 264.337 1237.88 270.124 1240.61 276.509C1243.33 282.893 1244.76 289.752 1244.83 296.692" fill="#E6352B"/>
</g>
<rect x="2082.5" y="123.5" width="66" height="229" fill="white" stroke="white"/>
</g>
<defs>
<filter id="filter0_i_482_60" x="1138.69" y="104.052" width="104.023" height="104.004" filterUnits="userSpaceOnUse" color-interpolation-filters="sRGB">
<feFlood flood-opacity="0" result="BackgroundImageFix"/>
<feBlend mode="normal" in="SourceGraphic" in2="BackgroundImageFix" result="shape"/>
<feColorMatrix in="SourceAlpha" type="matrix" values="0 0 0 0 0 0 0 0 0 0 0 0 0 0 0 0 0 0 127 0" result="hardAlpha"/>
<feOffset dx="-15" dy="-10"/>
<feComposite in2="hardAlpha" operator="arithmetic" k2="-1" k3="1"/>
<feColorMatrix type="matrix" values="0 0 0 0 0 0 0 0 0 0 0 0 0 0 0 0 0 0 0.25 0"/>
<feBlend mode="normal" in2="shape" result="effect1_innerShadow_482_60"/>
</filter>
<filter id="filter1_i_482_60" x="1137.95" y="244.383" width="107" height="107" filterUnits="userSpaceOnUse" color-interpolation-filters="sRGB">
<feFlood flood-opacity="0" result="BackgroundImageFix"/>
<feBlend mode="normal" in="SourceGraphic" in2="BackgroundImageFix" result="shape"/>
<feColorMatrix in="SourceAlpha" type="matrix" values="0 0 0 0 0 0 0 0 0 0 0 0 0 0 0 0 0 0 127 0" result="hardAlpha"/>
<feOffset dx="-15" dy="-11"/>
<feComposite in2="hardAlpha" operator="arithmetic" k2="-1" k3="1"/>
<feColorMatrix type="matrix" values="0 0 0 0 0 0 0 0 0 0 0 0 0 0 0 0 0 0 0.25 0"/>
<feBlend mode="normal" in2="shape" result="effect1_innerShadow_482_60"/>
</filter>
<clipPath id="clip0_482_60">
<rect width="2174" height="353" fill="white"/>
</clipPath>
</defs>
</svg>
